<svg xmlns="http://www.w3.org/2000/svg" viewBox="0 0 48 48" fill="none">
  <rect width="48" height="48" rx="10" fill="#0d1117"/>
  <path d="M24 8C15.16 8 8 15.16 8 24c0 7.08 4.58 13.07 10.94 15.18.8.15 1.09-.35 1.09-.77v-2.7c-4.45.97-5.39-2.14-5.39-2.14-.73-1.85-1.78-2.34-1.78-2.34-1.45-1 .11-.97.11-.97 1.6.11 2.45 1.65 2.45 1.65 1.43 2.45 3.75 1.74 4.66 1.33.14-1.03.56-1.74 1.01-2.14-3.55-.4-7.29-1.78-7.29-7.91 0-1.75.62-3.18 1.65-4.3-.17-.4-.71-2.03.16-4.23 0 0 1.34-.43 4.4 1.64a15.3 15.3 0 018.01 0c3.06-2.07 4.4-1.64 4.4-1.64.87 2.2.33 3.83.16 4.23 1.03 1.12 1.65 2.55 1.65 4.3 0 6.15-3.74 7.5-7.31 7.9.58.5 1.09 1.47 1.09 2.97v4.4c0 .43.29.93 1.1.77C35.42 37.07 40 31.08 40 24c0-8.84-7.16-16-16-16z" fill="#c9d1d9"/>
</svg>
