<svg xmlns="http://www.w3.org/2000/svg" viewBox="0 0 720 450"><defs><linearGradient id="paper" x2=".9" y2="1"><stop stop-color="#faf9f4"/><stop offset="1" stop-color="#e4e2db"/></linearGradient><linearGradient id="metal" x2="1" y2="1"><stop stop-color="#fafbfc"/><stop offset=".35" stop-color="#d0d8df"/><stop offset=".65" stop-color="#f2f4f6"/><stop offset="1" stop-color="#a4b1be"/></linearGradient><filter id="shadow" x="-30%" y="-30%" width="180%" height="180%"><feDropShadow dx="7" dy="18" stdDeviation="15" flood-color="#34465a" flood-opacity=".14"/></filter><radialGradient id="light"><stop stop-color="#fff" stop-opacity=".36"/><stop offset="1" stop-color="#fff" stop-opacity="0"/></radialGradient></defs><g><circle cx="528" cy="90" r="86" fill="#e6b681" opacity=".56"/><circle cx="528" cy="90" r="57" fill="#f4e1bb" opacity=".72"/><path d="M-30 118C105 44 200 192 345 106S590 136 752 64" fill="none" stroke="#ba755f" stroke-width="5" opacity="0.44"/><path d="M-30 145C105 74 200 214 345 133S590 159 752 93" fill="none" stroke="#d19b75" stroke-width="2" opacity="0.48"/><path d="M-30 172C105 104 200 236 345 160S590 182 752 122" fill="none" stroke="#d19b75" stroke-width="2" opacity="0.52"/><path d="M-30 199C105 134 200 258 345 187S590 205 752 151" fill="none" stroke="#ba755f" stroke-width="5" opacity="0.56"/><path d="M-30 226C105 164 200 280 345 214S590 228 752 180" fill="none" stroke="#d19b75" stroke-width="2" opacity="0.6"/><path d="M-30 253C105 194 200 302 345 241S590 251 752 209" fill="none" stroke="#d19b75" stroke-width="2" opacity="0.64"/><path d="M-30 280C105 224 200 324 345 268S590 274 752 238" fill="none" stroke="#ba755f" stroke-width="5" opacity="0.6799999999999999"/><path d="M-30 307C105 254 200 346 345 295S590 297 752 267" fill="none" stroke="#d19b75" stroke-width="2" opacity="0.72"/><path d="M-30 334C105 284 200 368 345 322S590 320 752 296" fill="none" stroke="#d19b75" stroke-width="2" opacity="0.76"/><path d="M-30 361C105 314 200 390 345 349S590 343 752 325" fill="none" stroke="#ba755f" stroke-width="5" opacity="0.8"/><path d="M0 398C180 341 271 430 432 356S620 361 730 303" fill="none" stroke="#7f9a96" stroke-width="3" opacity=".58"/></g></svg>