<svg xmlns="http://www.w3.org/2000/svg" viewBox="0 0 720 450"><defs><linearGradient id="paper" x2=".9" y2="1"><stop stop-color="#faf9f4"/><stop offset="1" stop-color="#e4e2db"/></linearGradient><linearGradient id="metal" x2="1" y2="1"><stop stop-color="#fafbfc"/><stop offset=".35" stop-color="#d0d8df"/><stop offset=".65" stop-color="#f2f4f6"/><stop offset="1" stop-color="#a4b1be"/></linearGradient><filter id="shadow" x="-30%" y="-30%" width="180%" height="180%"><feDropShadow dx="7" dy="18" stdDeviation="15" flood-color="#34465a" flood-opacity=".14"/></filter><radialGradient id="light"><stop stop-color="#fff" stop-opacity=".36"/><stop offset="1" stop-color="#fff" stop-opacity="0"/></radialGradient></defs><g transform="translate(186 68) rotate(-12 180 140)" filter="url(#shadow)"><rect width="346" height="308" rx="15" fill="url(#metal)" stroke="#f4f6f8"/><rect x="31" y="22" width="37" height="34" rx="5" fill="#6685a8" opacity="0.9"/><rect x="79" y="22" width="37" height="34" rx="5" fill="#6685a8" opacity="0.9"/><rect x="127" y="22" width="37" height="34" rx="5" fill="#6685a8" opacity="0.9"/><rect x="175" y="22" width="37" height="34" rx="5" fill="#c9d2db" opacity="0.6"/><rect x="223" y="22" width="37" height="34" rx="5" fill="#c9d2db" opacity="0.6"/><rect x="271" y="22" width="37" height="34" rx="5" fill="#c9d2db" opacity="0.6"/><rect x="31" y="66" width="37" height="34" rx="5" fill="#c9d2db" opacity="0.6"/><rect x="79" y="66" width="37" height="34" rx="5" fill="#6685a8" opacity="0.9"/><rect x="127" y="66" width="37" height="34" rx="5" fill="#6685a8" opacity="0.9"/><rect x="175" y="66" width="37" height="34" rx="5" fill="#6685a8" opacity="0.9"/><rect x="223" y="66" width="37" height="34" rx="5" fill="#c9d2db" opacity="0.6"/><rect x="271" y="66" width="37" height="34" rx="5" fill="#c9d2db" opacity="0.6"/><rect x="31" y="110" width="37" height="34" rx="5" fill="#c9d2db" opacity="0.6"/><rect x="79" y="110" width="37" height="34" rx="5" fill="#c9d2db" opacity="0.6"/><rect x="127" y="110" width="37" height="34" rx="5" fill="#6685a8" opacity="0.9"/><rect x="175" y="110" width="37" height="34" rx="5" fill="#6685a8" opacity="0.9"/><rect x="223" y="110" width="37" height="34" rx="5" fill="#6685a8" opacity="0.9"/><rect x="271" y="110" width="37" height="34" rx="5" fill="#c9d2db" opacity="0.6"/><rect x="31" y="154" width="37" height="34" rx="5" fill="#c9d2db" opacity="0.6"/><rect x="79" y="154" width="37" height="34" rx="5" fill="#c9d2db" opacity="0.6"/><rect x="127" y="154" width="37" height="34" rx="5" fill="#c9d2db" opacity="0.6"/><rect x="175" y="154" width="37" height="34" rx="5" fill="#6685a8" opacity="0.9"/><rect x="223" y="154" width="37" height="34" rx="5" fill="#6685a8" opacity="0.9"/><rect x="271" y="154" width="37" height="34" rx="5" fill="#6685a8" opacity="0.9"/><rect x="31" y="198" width="37" height="34" rx="5" fill="#c9d2db" opacity="0.6"/><rect x="79" y="198" width="37" height="34" rx="5" fill="#c9d2db" opacity="0.6"/><rect x="127" y="198" width="37" height="34" rx="5" fill="#c9d2db" opacity="0.6"/><rect x="175" y="198" width="37" height="34" rx="5" fill="#c9d2db" opacity="0.6"/><rect x="223" y="198" width="37" height="34" rx="5" fill="#6685a8" opacity="0.9"/><rect x="271" y="198" width="37" height="34" rx="5" fill="#6685a8" opacity="0.9"/><rect x="31" y="242" width="37" height="34" rx="5" fill="#6685a8" opacity="0.9"/><rect x="79" y="242" width="37" height="34" rx="5" fill="#c9d2db" opacity="0.6"/><rect x="127" y="242" width="37" height="34" rx="5" fill="#c9d2db" opacity="0.6"/><rect x="175" y="242" width="37" height="34" rx="5" fill="#c9d2db" opacity="0.6"/><rect x="223" y="242" width="37" height="34" rx="5" fill="#c9d2db" opacity="0.6"/><rect x="271" y="242" width="37" height="34" rx="5" fill="#6685a8" opacity="0.9"/></g></svg>